PathFileType   4   (X/Y/Z)
DataRate	CameraRate	NumFrames	NumMarkers	Units	OrigDataRate	OrigDataStartFrame	OrigNumFrames
120.0	120.0	12	37	mm	120.0	98	156
Frame#	Time	midhip	hip_r	hip_l	knee_r	knee_l	ankle_r	ankle_l	midasis	asis_r	asis_l	psis_r	psis_l	epicondLat_r	epicondLat_l	epicondMed_r	epicondMed_l	malleolusLat_r	malleolusLat_l	malleolusMedv_r	malleolusMedv_l	neck	subclavicle_r	subclavicle_l	sternalnotch	xyphoidprocess	thighwand_r	thighwand_l	upperleg1_r	upperleg1_l	upperleg2_r	upperleg2_l	shankwand_r	shankwand_l	lowerleg1_r	lowerleg1_l	toe_r	toe_l
 	 	X1	Y1	Z1	X2	Y2	Z2	X3	Y3	Z3	X4	Y4	Z4	X5	Y5	Z5	X6	Y6	Z6	X7	Y7	Z7	X8	Y8	Z8	X9	Y9	Z9	X10	Y10	Z10	X11	Y11	Z11	X12	Y12	Z12	X13	Y13	Z13	X14	Y14	Z14	X15	Y15	Z15	X16	Y16	Z16	X17	Y17	Z17	X18	Y18	Z18	X19	Y19	Z19	X20	Y20	Z20	X21	Y21	Z21	X22	Y22	Z22	X23	Y23	Z23	X24	Y24	Z24	X25	Y25	Z25	X26	Y26	Z26	X27	Y27	Z27	X28	Y28	Z28	X29	Y29	Z29	X30	Y30	Z30	X31	Y31	Z31	X32	Y32	Z32	X33	Y33	Z33	X34	Y34	Z34	X35	Y35	Z35	X36	Y36	Z36	X37	Y37	Z37

	98	1.07500	2036.614	821.407	-234.295	2033.438	806.632	-156.576	2015.224	802.138	-307.542	2062.969	441.356	-176.997	2043.705	411.054	-354.021	2076.945	66.221	-197.255	1773.788	191.079	-317.000	2115.553	876.658	-242.153	2125.896	880.130	-123.818	2105.210	873.186	-360.488	1923.898	941.902	-195.406	1914.876	935.153	-249.330	2071.919	438.879	-119.746	2049.553	418.284	-411.271	2051.843	437.895	-224.306	2083.313	411.206	-291.912	2064.141	63.703	-159.443	1759.851	202.153	-352.821	2085.792	77.754	-230.208	1789.852	186.190	-294.882	1970.539	1373.537	-228.081	2103.432	1320.363	-187.392	2097.355	1314.767	-293.689	2096.944	1313.967	-239.706	2141.321	1247.346	-242.483	2207.996	579.269	-198.422	2078.457	559.579	-485.379	2148.250	626.768	-133.505	2020.632	593.092	-416.326	2139.057	539.661	-134.244	2039.116	508.099	-414.450	2055.408	136.463	-83.812	1929.919	194.747	-333.119	2055.357	147.897	-125.970	1900.197	226.235	-335.256	2176.610	38.692	-175.524	1793.543	84.715	-348.526
	99	1.08333	2042.466	821.798	-233.395	2038.897	806.782	-156.257	2020.903	802.392	-307.253	2065.966	441.372	-176.771	2057.412	411.837	-354.246	2077.415	66.210	-197.332	1789.474	189.880	-316.606	2121.286	876.677	-241.678	2131.449	880.073	-123.412	2111.123	873.280	-359.944	1929.687	942.381	-195.073	1920.721	935.525	-249.001	2075.120	438.838	-119.554	2063.326	419.274	-411.462	2053.238	439.546	-224.667	2099.812	412.254	-293.452	2064.384	63.744	-159.595	1775.434	200.751	-352.448	2085.701	78.117	-230.388	1805.397	185.310	-294.444	1977.204	1374.079	-226.883	2109.916	1319.904	-186.362	2103.247	1314.487	-293.182	2103.156	1313.970	-239.097	2146.982	1246.681	-242.018	2211.849	578.593	-198.760	2089.823	560.864	-485.695	2153.143	626.808	-133.721	2031.138	592.886	-416.107	2142.455	539.331	-134.683	2052.007	508.977	-414.996	2055.729	136.480	-83.846	1945.586	194.978	-332.802	2055.341	148.142	-125.871	1916.180	225.866	-334.705	2176.739	38.526	-175.648	1812.067	84.730	-348.557
	100	1.09167	2047.812	821.674	-232.624	2044.349	806.956	-155.891	2026.600	802.622	-306.918	2068.918	441.403	-176.583	2071.024	412.733	-354.493	2077.809	66.161	-197.441	1805.520	188.220	-316.291	2126.989	876.738	-241.162	2136.954	880.094	-122.946	2117.024	873.381	-359.378	1935.410	942.786	-194.876	1926.549	935.839	-248.799	2078.322	438.799	-119.409	2077.002	420.391	-411.674	2054.855	440.200	-221.671	2114.656	413.139	-294.527	2064.574	63.753	-159.770	1791.321	198.914	-352.124	2087.490	78.168	-230.002	1821.425	184.194	-294.287	1983.585	1374.623	-225.737	2116.271	1319.692	-185.789	2108.977	1314.596	-292.574	2109.362	1313.957	-238.490	2152.657	1246.435	-241.843	2215.556	577.865	-199.218	2101.156	562.253	-486.065	2157.865	626.988	-133.537	2041.444	592.755	-416.069	2146.369	539.866	-133.727	2064.389	509.352	-415.467	2056.042	136.518	-83.908	1961.562	195.096	-332.721	2056.626	148.554	-125.670	1931.908	225.524	-334.699	2176.861	38.371	-175.797	1831.097	84.481	-348.652
	101	1.10000	2053.445	821.837	-232.193	2049.798	807.140	-155.481	2032.304	802.831	-306.538	2071.865	441.432	-176.455	2084.477	413.732	-354.748	2078.107	66.079	-197.583	1821.911	186.143	-316.042	2132.656	876.841	-240.607	2142.419	880.181	-122.415	2122.893	873.501	-358.800	1941.077	943.109	-194.793	1932.339	936.091	-248.697	2081.537	438.739	-119.331	2090.532	421.623	-411.889	2057.387	440.165	-219.615	2129.218	415.497	-294.165	2064.718	63.738	-159.963	1807.495	196.688	-351.833	2089.811	77.994	-229.437	1838.130	182.790	-294.005	1989.386	1374.872	-225.283	2122.535	1319.782	-185.796	2115.045	1314.922	-292.092	2115.549	1313.943	-237.891	2158.858	1246.672	-241.837	2219.190	577.133	-199.738	2112.450	563.741	-486.474	2162.109	626.634	-133.292	2052.378	593.138	-416.536	2150.364	539.948	-133.098	2076.993	509.995	-415.533	2056.421	136.571	-83.991	1977.824	195.110	-332.868	2058.336	148.661	-125.406	1947.194	225.169	-335.424	2176.980	38.234	-175.965	1850.630	83.994	-348.829
	102	1.10833	2059.065	821.964	-231.890	2055.269	807.322	-155.027	2038.009	803.026	-306.111	2074.826	441.453	-176.402	2097.716	414.828	-354.988	2078.313	65.968	-197.760	1838.633	183.684	-315.852	2138.293	876.986	-240.020	2147.871	880.317	-121.818	2128.715	873.655	-358.222	1946.688	943.348	-194.796	1938.061	936.281	-248.673	2084.769	438.650	-119.330	2103.872	422.964	-412.084	2060.137	440.196	-220.394	2142.794	418.401	-293.969	2064.836	63.705	-160.167	1823.946	194.097	-351.571	2089.957	77.983	-229.634	1855.002	181.223	-293.401	1995.313	1374.925	-225.133	2128.678	1319.991	-185.614	2121.370	1315.085	-291.518	2121.718	1313.966	-237.333	2165.216	1246.925	-241.370	2222.830	576.460	-200.290	2123.692	565.319	-486.893	2166.033	625.846	-133.771	2063.317	594.691	-417.360	2153.772	539.260	-133.743	2089.399	511.006	-415.868	2056.925	136.630	-84.081	1994.366	195.029	-333.213	2058.803	148.353	-125.412	1963.086	224.658	-335.896	2177.101	38.114	-176.133	1870.650	83.288	-349.112
	103	1.11667	2064.765	822.134	-231.597	2060.760	807.482	-154.560	2043.717	803.219	-305.670	2077.815	441.466	-176.423	2110.706	416.024	-355.197	2078.446	65.835	-197.972	1855.683	180.854	-315.715	2143.903	877.169	-239.419	2153.314	880.474	-121.177	2134.492	873.864	-357.661	1952.242	943.507	-194.854	1943.695	936.411	-248.704	2088.008	438.535	-119.401	2116.987	424.407	-412.243	2062.350	440.833	-221.700	2153.153	420.022	-294.664	2064.956	63.656	-160.378	1840.675	191.148	-351.336	2089.068	78.005	-230.194	1871.513	179.469	-293.100	2001.675	1375.173	-224.485	2134.666	1320.091	-184.808	2127.795	1314.872	-290.474	2127.882	1314.041	-236.829	2171.288	1246.777	-240.054	2226.521	575.887	-200.832	2134.851	566.976	-487.293	2169.879	624.956	-134.318	2073.450	596.578	-418.402	2156.775	538.921	-134.526	2100.445	512.017	-416.839	2057.592	136.681	-84.168	2011.175	194.865	-333.730	2058.843	148.159	-125.611	1979.393	224.312	-335.985	2177.227	38.000	-176.273	1891.127	82.385	-349.529
	104	1.12500	2070.798	822.659	-231.558	2066.287	807.603	-154.111	2049.435	803.425	-305.244	2080.821	441.469	-176.498	2123.442	417.327	-355.363	2078.530	65.689	-198.210	1873.068	177.663	-315.635	2149.500	877.384	-238.823	2158.766	880.623	-120.518	2140.234	874.146	-357.127	1957.741	943.600	-194.939	1949.237	936.494	-248.776	2091.244	438.400	-119.525	2129.859	425.955	-412.358	2064.019	442.841	-223.456	2163.766	421.191	-295.261	2065.100	63.597	-160.590	1857.694	187.840	-351.133	2088.818	77.619	-230.633	1888.459	176.776	-293.138	2008.127	1375.482	-223.750	2140.885	1319.958	-184.109	2133.946	1314.752	-289.669	2134.023	1314.115	-236.388	2177.218	1246.508	-239.312	2230.281	575.423	-201.365	2145.879	568.711	-487.657	2174.169	624.308	-134.006	2083.215	597.163	-419.207	2159.874	538.649	-135.202	2111.252	513.041	-417.670	2058.434	136.705	-84.248	2028.225	194.630	-334.393	2059.528	147.976	-126.020	1995.462	224.014	-336.369	2177.359	37.879	-176.358	1912.016	81.300	-350.114
	105	1.13333	2076.708	823.165	-231.866	2071.844	807.677	-153.706	2055.159	803.651	-304.862	2083.828	441.454	-176.603	2135.943	418.751	-355.479	2078.588	65.539	-198.460	1890.790	174.123	-315.619	2155.087	877.625	-238.250	2164.227	880.743	-119.872	2145.948	874.508	-356.628	1963.190	943.637	-195.026	1954.686	936.545	-248.878	2094.463	438.243	-119.677	2142.487	427.613	-412.423	2067.528	442.484	-222.459	2174.930	422.141	-295.910	2065.276	63.534	-160.793	1875.011	184.174	-350.974	2088.512	77.064	-231.159	1906.858	173.205	-293.164	2014.402	1375.675	-223.475	2147.372	1319.982	-183.752	2139.815	1315.043	-289.547	2140.125	1314.136	-236.010	2183.315	1246.634	-239.479	2234.094	575.043	-201.885	2156.728	570.525	-487.979	2178.743	623.856	-134.015	2093.022	597.075	-419.687	2164.340	538.099	-135.117	2122.018	514.288	-418.339	2059.426	136.696	-84.324	2045.483	194.341	-335.177	2060.374	147.692	-126.590	2011.790	223.513	-336.241	2177.495	37.740	-176.374	1933.258	80.046	-350.904
	106	1.14167	2082.206	823.357	-232.323	2077.430	807.701	-153.350	2060.886	803.903	-304.528	2086.816	441.421	-176.717	2148.231	420.295	-355.541	2078.650	65.396	-198.697	1908.839	170.254	-315.675	2160.671	877.880	-237.705	2169.705	880.816	-119.249	2151.638	874.944	-356.160	1968.597	943.632	-195.105	1960.054	936.582	-249.007	2097.652	438.070	-119.837	2154.880	429.375	-412.439	2071.722	441.471	-220.507	2186.592	423.897	-296.494	2065.484	63.477	-160.975	1892.624	180.167	-350.871	2087.892	76.808	-231.699	1925.909	169.311	-293.539	2020.639	1375.730	-223.324	2153.794	1320.198	-183.395	2145.451	1315.383	-289.714	2146.197	1314.111	-235.678	2189.359	1246.937	-239.768	2237.942	574.711	-202.405	2167.364	572.408	-488.255	2183.447	623.551	-134.258	2102.719	598.027	-420.166	2169.267	537.815	-134.756	2133.035	515.608	-418.927	2060.503	136.650	-84.413	2062.925	194.011	-336.060	2061.131	147.575	-126.922	2028.935	222.583	-336.380	2177.633	37.580	-176.325	1954.794	78.656	-351.936
	107	1.15000	2087.279	823.162	-232.743	2083.014	807.669	-153.058	2066.600	804.178	-304.257	2089.783	441.375	-176.825	2160.306	421.939	-355.561	2078.745	65.269	-198.900	1927.207	166.089	-315.812	2166.243	878.127	-237.192	2175.180	880.820	-118.663	2157.306	875.435	-355.720	1973.978	943.596	-195.170	1965.366	936.619	-249.152	2100.806	437.890	-119.989	2167.035	431.220	-412.416	2075.032	442.331	-221.288	2198.731	426.682	-296.616	2065.716	63.434	-161.126	1910.527	175.844	-350.836	2087.563	76.535	-232.093	1944.718	165.397	-294.028	2026.777	1375.663	-223.078	2159.873	1320.076	-183.300	2151.104	1315.365	-289.776	2152.263	1314.083	-235.381	2195.149	1246.835	-239.973	2241.787	574.360	-202.909	2177.768	574.339	-488.488	2187.840	623.285	-133.990	2112.218	599.762	-420.925	2173.358	537.524	-135.195	2144.405	516.716	-419.413	2061.584	136.569	-84.538	2080.523	193.648	-337.038	2062.091	147.570	-127.192	2046.594	221.472	-337.788	2177.769	37.400	-176.221	1976.567	77.171	-353.246
	108	1.15833	2092.416	823.047	-233.293	2088.575	807.581	-152.837	2072.286	804.468	-304.058	2092.731	441.313	-176.925	2172.152	423.654	-355.555	2078.888	65.162	-199.053	1945.888	161.668	-316.043	2171.799	878.344	-236.719	2180.641	880.737	-118.128	2162.957	875.951	-355.310	1979.349	943.546	-195.210	1970.663	936.663	-249.298	2103.927	437.705	-120.131	2178.936	433.116	-412.375	2079.328	441.590	-221.869	2211.138	429.239	-296.915	2065.959	63.413	-161.241	1928.719	171.243	-350.879	2088.307	75.893	-232.157	1963.368	161.757	-294.238	2033.046	1375.754	-222.652	2165.730	1319.701	-183.259	2157.275	1314.886	-289.553	2158.353	1314.048	-235.098	2200.910	1246.257	-239.626	2245.605	573.928	-203.396	2187.920	576.292	-488.690	2191.743	622.744	-134.268	2121.814	600.670	-421.490	2177.530	536.753	-135.723	2155.507	518.268	-419.877	2062.596	136.462	-84.713	2098.249	193.267	-338.120	2063.573	147.729	-127.617	2064.192	219.906	-338.664	2177.900	37.210	-176.083	1998.525	75.629	-354.861
	109	1.16667	2098.160	823.548	-234.094	2094.084	807.446	-152.697	2077.930	804.766	-303.941	2095.685	441.226	-177.024	2183.752	425.416	-355.538	2079.076	65.073	-199.160	1964.868	157.049	-316.378	2177.329	878.518	-236.298	2186.067	880.569	-117.664	2168.590	876.467	-354.932	1984.731	943.492	-195.211	1975.992	936.714	-249.423	2107.024	437.506	-120.264	2190.562	435.040	-412.327	2083.226	440.152	-221.209	2223.617	431.804	-297.297	2066.193	63.416	-161.328	1947.185	166.417	-351.013	2089.700	75.214	-231.963	1982.406	157.701	-294.637	2039.673	1375.991	-222.112	2171.735	1319.707	-182.842	2163.646	1314.520	-288.721	2164.490	1313.956	-234.823	2206.863	1245.929	-238.590	2249.383	573.362	-203.830	2197.793	578.237	-488.877	2195.635	622.155	-134.989	2130.966	600.826	-421.839	2181.473	535.805	-135.880	2166.124	520.286	-420.291	2063.496	136.353	-84.936	2116.084	192.890	-339.317	2065.196	147.917	-127.940	2081.664	218.288	-339.454	2178.021	37.019	-175.933	2020.622	74.062	-356.789
